PathFileType	4	(X/Y/Z)	TVC_20_BWA5_walk_RCNL2025.trc
DataRate	CameraRate	NumFrames	NumMarkers	Units	OrigDataRate	OrigDataStartFrame	OrigNumFrames
100	100	10	27	mm	100	1	220
Frame#	Time	R_Shoulder			L_Shoulder			C7			J_Notch			R_Elbow			L_Elbow			R_Wrist			L_Wrist			R_Asis			L_Asis			R_Psis			L_Psis			Sacral			Thoracic			Sternum			R_Thigh_Lateral			R_Knee_Lateral			R_Shank_Lateral			R_Ankle_Lateral			R_Heel			R_Toe			L_Thigh_Lateral			L_Knee_Lateral			L_Shank_Lateral			L_Ankle_Lateral			L_Heel			L_Toe		
		X1	Y1	Z1	X2	Y2	Z2	X3	Y3	Z3	X4	Y4	Z4	X5	Y5	Z5	X6	Y6	Z6	X7	Y7	Z7	X8	Y8	Z8	X9	Y9	Z9	X10	Y10	Z10	X11	Y11	Z11	X12	Y12	Z12	X13	Y13	Z13	X14	Y14	Z14	X15	Y15	Z15	X16	Y16	Z16	X17	Y17	Z17	X18	Y18	Z18	X19	Y19	Z19	X20	Y20	Z20	X21	Y21	Z21	X22	Y22	Z22	X23	Y23	Z23	X24	Y24	Z24	X25	Y25	Z25	X26	Y26	Z26	X27	Y27	Z27
1	0.00000000	-2114.522949	1350.089233	332.067932	-2147.332520	1377.751709	-31.270357	-2163.147217	1417.297974	163.856247	-2046.879639	1281.630615	149.237747	-2201.872314	1054.206299	441.355652	-2140.528809	1068.704712	-148.442368	-2052.346252	839.536102	434.068573	-1946.775330	900.125336	-102.778248	-2098.595459	957.454468	282.407623	-2118.285156	972.704102	-1.200707	-2257.497070	960.017822	198.808441	-2277.166504	961.199158	112.829330	-2267.331787	960.608490	155.818886	-2282.291992	1199.206909	154.157974	-2042.452271	1138.582153	134.619720	-2040.709473	638.128357	352.258606	-1942.879150	471.306213	274.299011	-1933.900024	288.479706	325.734955	-1842.248413	72.301468	252.477005	-1875.187988	40.190453	198.837784	-1691.369507	75.450890	250.574493	-2253.852051	622.949829	-66.818520	-2284.051025	459.980469	10.496286	-2383.876709	304.339600	-42.032387	-2500.636963	89.790916	47.863865	-2549.902832	96.485390	87.022614	-2375.031494	30.735861	75.410744
2	0.01000000	-2099.619873	1348.565918	334.667572	-2133.720459	1378.131592	-28.556520	-2148.848389	1416.671387	166.959030	-2032.230103	1281.193970	151.282990	-2185.933838	1051.536377	442.128082	-2129.427002	1069.194702	-146.089386	-2037.902832	835.873566	434.476685	-1935.045410	900.804504	-102.475346	-2082.848877	956.638855	282.871887	-2103.285400	972.070007	-0.158613	-2242.212158	959.526184	200.114273	-2262.002441	960.524048	114.105095	-2252.107300	960.025116	157.109684	-2267.557861	1198.417603	156.034058	-2027.397583	1138.476074	136.134476	-2022.875977	639.235901	352.426025	-1925.746582	471.785767	274.765808	-1919.768799	287.911163	325.596893	-1835.492188	70.037575	251.605621	-1870.360840	39.409245	198.399246	-1685.443115	67.935898	247.485321	-2240.958008	623.249817	-66.436897	-2270.735107	459.231659	9.749217	-2374.299805	305.910004	-42.649899	-2497.050049	94.442497	46.369041	-2546.235840	103.141518	85.187042	-2374.352539	30.662455	75.261963
3	0.02000000	-2084.609619	1347.296265	337.314087	-2119.990479	1378.779053	-25.790386	-2134.422607	1416.314209	170.124161	-2017.334351	1281.048950	153.295959	-2169.762451	1049.077759	442.885559	-2118.706543	1069.978882	-143.647339	-2023.188538	832.458496	434.896423	-1923.898010	901.525543	-102.325756	-2067.072021	956.277405	283.428436	-2087.994385	971.677734	1.050665	-2226.851318	959.366638	201.385635	-2246.680664	960.085510	115.268074	-2236.765991	959.726074	158.326855	-2252.717285	1197.897583	157.890152	-2012.165649	1138.690430	137.734436	-2005.211914	640.737793	352.464233	-1908.662720	472.519348	275.356934	-1906.089600	287.760529	325.689423	-1829.955688	68.000641	250.954422	-1866.910034	39.141457	198.302505	-1680.574463	59.968842	244.356033	-2227.080078	623.642395	-66.067787	-2256.151855	458.396057	8.829005	-2363.661133	307.684174	-43.445049	-2492.552734	99.644417	44.648937	-2541.457764	110.572731	83.131485	-2373.560547	30.454041	75.171852
4	0.03000000	-2069.507080	1346.294189	339.984650	-2106.158447	1379.688843	-22.992277	-2119.889648	1416.228882	173.325546	-2002.304321	1281.266113	155.369324	-2153.381104	1046.854858	443.623688	-2108.320557	1071.056519	-141.132919	-2008.202332	829.329163	435.323547	-1913.315491	902.268250	-102.312534	-2051.320557	956.391479	284.112091	-2072.483398	971.527527	2.418089	-2211.450195	959.538269	202.627869	-2231.251709	959.875305	116.329102	-2221.350952	959.706787	159.478485	-2237.797607	1197.653809	159.726257	-1996.797974	1139.215454	139.403778	-1987.565430	642.626526	352.413757	-1891.779053	473.453430	276.061035	-1892.656006	288.095428	326.125763	-1825.353638	66.328018	250.548462	-1864.410522	39.372112	198.548584	-1676.459961	52.190769	241.402512	-2212.113770	624.042969	-65.728615	-2240.188477	457.426727	7.747639	-2351.825195	309.615875	-44.381062	-2486.967773	105.409729	42.758312	-2535.329346	118.790855	80.941727	-2372.649902	30.093481	75.147797
5	0.04000000	-2054.331299	1345.570312	342.655243	-2092.244873	1380.852051	-20.183947	-2105.271240	1416.413574	176.535690	-1987.245605	1281.983643	157.533356	-2136.816162	1044.890015	444.340851	-2098.217773	1072.421143	-138.564407	-1992.945068	826.522675	435.752014	-1903.273010	903.011719	-102.416306	-2035.646606	956.980408	284.944763	-2056.836182	971.612671	3.927651	-2196.046631	960.033997	203.847916	-2215.771729	959.881226	117.305977	-2205.909180	959.957611	160.576946	-2222.828857	1197.689087	161.542999	-1981.341553	1140.035034	141.123001	-1969.673584	644.895020	352.387787	-1875.255249	474.517700	276.857361	-1879.240356	288.910522	326.978363	-1821.489136	65.089806	250.358887	-1862.539307	39.996857	199.069504	-1672.937134	45.169220	238.780975	-2195.963135	624.342651	-65.437065	-2222.759766	456.284790	6.531775	-2338.652588	311.637573	-45.417847	-2480.123779	111.738159	40.755291	-2527.626953	127.780823	78.702957	-2371.588379	29.613609	75.183151
6	0.05000000	-2039.102173	1345.130859	345.301392	-2078.272949	1382.256104	-17.388016	-2090.591553	1416.863159	179.726440	-1972.139282	1283.316040	159.732208	-2120.097656	1043.202515	445.038239	-2088.345215	1074.061035	-135.961487	-1977.419861	824.074219	436.174133	-1893.739868	903.734741	-102.616230	-2020.093262	958.020691	285.934113	-2041.143555	971.919373	5.556698	-2180.678955	960.840820	205.054199	-2200.300049	960.088745	118.222824	-2190.489502	960.464783	161.638512	-2207.841797	1198.002686	163.341553	-1965.847778	1141.126831	142.869049	-1951.341553	647.491455	352.540161	-1859.256348	475.626404	277.716858	-1865.715332	290.098145	328.224060	-1818.240234	64.293327	250.315872	-1861.077637	40.863377	199.749557	-1669.940430	39.310131	236.568176	-2178.553467	624.419861	-65.208359	-2203.820801	454.947205	5.223104	-2324.014893	313.666931	-46.514755	-2471.866699	118.615730	38.697578	-2518.165039	137.497284	76.491150	-2370.293213	29.117426	75.259537
7	0.06000000	-2023.842529	1344.978027	347.898895	-2064.269287	1383.885010	-14.627347	-2075.876465	1417.569092	182.869797	-1956.932495	1285.187256	161.992401	-2103.258789	1041.808716	445.719879	-2078.648438	1075.958618	-133.345001	-1961.632446	822.015839	436.580734	-1884.679810	904.416565	-102.891060	-2004.693359	959.468323	287.074249	-2025.497681	972.428345	7.276904	-2165.384766	961.940735	206.256073	-2184.895020	960.482544	119.108505	-2175.139893	961.211639	162.682289	-2192.867432	1198.590088	165.123581	-1950.369507	1142.463379	144.616150	-1932.638916	650.297791	353.006104	-1843.947021	476.685333	278.605804	-1852.173706	291.460602	329.724823	-1815.529053	63.896446	250.333496	-1859.891602	41.815025	200.459869	-1667.441772	34.815453	234.763748	-2159.848389	624.159729	-65.050407	-2183.374756	453.414337	3.877657	-2307.810303	315.617859	-47.629257	-2462.071777	126.016296	36.640507	-2506.819336	147.863480	74.367638	-2368.607422	28.790215	75.345207
8	0.07000000	-2008.575562	1345.110229	350.424713	-2050.262451	1385.719116	-11.924393	-2061.151611	1418.520142	185.938843	-1941.679565	1287.344482	164.379333	-2086.334473	1040.720459	446.392334	-2069.074219	1078.090942	-130.736389	-1945.591248	820.375824	436.961517	-1876.052185	905.037323	-103.220222	-1989.466309	961.263611	288.347687	-2009.985474	973.117188	9.055802	-2150.199951	963.312073	207.463074	-2169.612305	961.048645	119.994125	-2159.906128	962.180359	163.728600	-2177.935303	1199.443115	166.890930	-1934.959106	1144.013550	146.336868	-1913.987915	653.137268	353.844025	-1829.482300	477.603027	279.490570	-1838.949951	292.763275	331.268494	-1813.295410	63.822559	250.333939	-1858.906494	42.722443	201.089050	-1665.413696	31.686325	233.311279	-2139.864746	623.480774	-64.957092	-2161.475586	451.715729	2.563212	-2289.974121	317.414642	-48.713615	-2450.653809	133.903000	34.636894	-2493.541992	158.771988	72.378296	-2366.280762	28.895794	75.393265
9	0.08000000	-1993.325684	1345.521484	352.857819	-2036.281860	1387.736572	-9.300501	-2046.442627	1419.702637	188.908508	-1926.520752	1289.485229	166.848770	-2069.360840	1039.946411	447.064178	-2059.572021	1080.430420	-128.156754	-1929.308044	819.177795	437.305435	-1867.813721	905.578644	-103.584747	-1974.418213	963.338379	289.728546	-1994.684204	973.963501	10.858763	-2135.156982	964.930908	208.683823	-2154.500488	961.776489	120.909882	-2144.828735	963.353699	164.796852	-2163.073975	1200.550659	168.645477	-1919.666748	1145.744751	148.003769	-1896.107666	655.794922	355.011810	-1815.997192	478.303467	280.342529	-1826.516235	293.799194	332.645691	-1811.483398	63.976871	250.263107	-1858.084717	43.498863	201.559860	-1663.819092	29.762247	232.133743	-2118.684814	622.360596	-64.900864	-2138.223633	449.912689	1.354088	-2270.484375	319.007843	-49.712952	-2437.570801	142.228409	32.738148	-2478.368652	170.086243	70.557777	-2362.961182	29.749483	75.342766
10	0.09000000	-1978.116943	1346.203003	355.179993	-2022.356567	1389.913574	-6.775199	-2031.773438	1421.101685	191.756332	-1911.554321	1291.441284	169.281235	-2052.374023	1039.490601	447.745270	-2050.095215	1082.946045	-125.626144	-1912.797791	818.439941	437.601227	-1859.919800	906.024292	-103.968124	-1959.544189	965.623779	291.186523	-1979.655640	974.948242	12.651400	-2120.284180	966.772095	209.924973	-2139.599609	962.659973	121.881561	-2129.941895	964.716034	165.903267	-2148.308594	1201.899048	170.388611	-1904.537476	1147.625000	149.591125	-1879.836182	658.043091	356.390533	-1803.595825	478.735779	281.142151	-1815.337158	294.437164	333.714233	-1810.038696	64.263435	250.096344	-1857.408203	44.101639	201.834351	-1662.613159	28.784386	231.165909	-2096.464844	620.853882	-64.828392	-2113.755127	448.097076	0.323347	-2249.364502	320.389038	-50.566891	-2422.822998	150.932098	30.995155	-2461.408936	181.641464	68.937195	-2358.208496	31.665323	75.124100
